<svg width="60" height="60" viewBox="0 0 60 60" fill="none" xmlns="http://www.w3.org/2000/svg">
<g clip-path="url(#clip0_33_152)">
<path d="M50.3976 27.1875L17.8131 27.1875C16.2598 27.1875 15.0006 28.4467 15.0006 30C15.0006 31.5532 16.2598 32.8125 17.8131 32.8125L50.3976 32.8125L46.7612 36.4488C45.6628 37.5472 45.6628 39.3279 46.7612 40.4262C47.8594 41.5246 49.6403 41.5246 50.7386 40.4262L59.1757 31.989C59.2415 31.9232 59.3038 31.8542 59.3626 31.7822C59.3883 31.7508 59.4106 31.7177 59.4348 31.6856C59.4658 31.6443 59.4976 31.604 59.5263 31.5611C59.5526 31.5219 59.5753 31.4812 59.5993 31.4411C59.6223 31.4025 59.6465 31.3648 59.6677 31.325C59.6898 31.2838 59.7084 31.2414 59.7283 31.1994C59.7478 31.1583 59.7682 31.1178 59.7856 31.0758C59.8025 31.0348 59.8164 30.993 59.8312 30.9513C59.8475 30.9063 59.8648 30.8619 59.8786 30.816C59.8912 30.7743 59.9004 30.7322 59.9109 30.69C59.9227 30.6433 59.9358 30.5968 59.9452 30.5492C59.9548 30.5006 59.9606 30.4515 59.9675 30.4025C59.9735 30.3607 59.9816 30.3195 59.9857 30.2771C59.9947 30.1864 59.9994 30.095 59.9996 30.0039C59.9996 30.0026 59.9998 30.0011 59.9998 29.9998C59.9998 29.9985 59.9996 29.997 59.9996 29.9957C59.9994 29.9044 59.9947 29.8132 59.9857 29.7223C59.9816 29.6805 59.9737 29.6398 59.9679 29.5984C59.9608 29.5489 59.9549 29.4994 59.9452 29.4502C59.9358 29.403 59.9229 29.3572 59.9111 29.3109C59.9004 29.2684 59.891 29.2254 59.8783 29.1832C59.8646 29.138 59.8475 29.0944 59.8318 29.0501C59.8166 29.0077 59.8027 28.9652 59.7854 28.9235C59.7684 28.8823 59.7483 28.8427 59.7292 28.8024C59.7089 28.7595 59.6898 28.7162 59.6673 28.674C59.6467 28.6355 59.6233 28.599 59.6009 28.5617C59.5764 28.5202 59.5529 28.4784 59.5259 28.4381C59.4986 28.3971 59.468 28.3586 59.4386 28.319C59.4131 28.2851 59.3894 28.2501 59.3623 28.2171C59.3062 28.1488 59.2468 28.0834 59.1847 28.0206C59.1817 28.0176 59.1793 28.0142 59.1763 28.0112L50.7388 19.5735C50.1894 19.0244 49.4698 18.7497 48.75 18.7497C48.0304 18.7499 47.3104 19.0244 46.7614 19.5734C45.663 20.6717 45.663 22.4524 46.7612 23.5508L50.3976 27.1875Z" fill="white"/>
<path d="M2.8125 55.3125L38.4373 55.3125C39.9905 55.3125 41.2498 54.0533 41.2498 52.5V41.2501C41.2498 39.6968 39.9905 38.4376 38.4373 38.4376C36.884 38.4376 35.6248 39.6968 35.6248 41.2501V49.6875L5.62498 49.6875L5.62498 10.3126L35.6248 10.3126V18.7502C35.6248 20.3035 36.884 21.5627 38.4373 21.5627C39.9905 21.5627 41.2498 20.3035 41.2498 18.7502V7.50011C41.2498 5.94687 39.9905 4.68763 38.4373 4.68763L2.8125 4.68763C1.25926 4.68763 1.52588e-05 5.94687 1.52588e-05 7.50011L1.52588e-05 52.5C1.52588e-05 54.0533 1.25926 55.3125 2.8125 55.3125Z" fill="white"/>
</g>
<defs>
<clipPath id="clip0_33_152">
<rect width="60" height="60" fill="white" transform="translate(60 60) rotate(-180)"/>
</clipPath>
</defs>
</svg>
