<svg width="195" height="58" viewBox="0 0 195 58" fill="none" xmlns="http://www.w3.org/2000/svg">
<path d="M32.144 7.648C32.24 8.192 32.304 8.576 32.336 8.8C32.4 8.992 32.432 9.264 32.432 9.616C32.432 10.672 32.192 11.664 31.712 12.592C31.264 13.488 30.64 14.128 29.84 14.512C29.2 13.648 28.416 12.912 27.488 12.304C26.56 11.664 25.536 11.152 24.416 10.768C23.328 10.352 22.192 10.048 21.008 9.856C19.824 9.664 18.672 9.568 17.552 9.568C16.432 9.568 15.376 9.664 14.384 9.856C13.424 10.016 12.56 10.256 11.792 10.576C11.056 10.864 10.464 11.232 10.016 11.68C9.6 12.128 9.392 12.64 9.392 13.216C9.488 13.92 9.92 14.64 10.688 15.376C11.456 16.08 12.4 16.784 13.52 17.488C14.64 18.16 15.872 18.832 17.216 19.504C18.592 20.176 19.936 20.816 21.248 21.424C22.88 22.192 24.288 22.912 25.472 23.584C26.656 24.224 27.632 24.944 28.4 25.744C29.168 26.512 29.744 27.392 30.128 28.384C30.512 29.376 30.704 30.576 30.704 31.984C30.704 33.616 30.432 35.152 29.888 36.592C29.344 38 28.544 39.232 27.488 40.288C26.464 41.344 25.216 42.16 23.744 42.736C22.272 43.344 20.624 43.648 18.8 43.648C17.008 43.648 15.072 43.376 12.992 42.832C10.912 42.288 8.96 41.536 7.136 40.576C5.344 39.648 3.84 38.576 2.624 37.36C1.44 36.112 0.848 34.8 0.848 33.424C0.848 32.784 1.024 31.968 1.376 30.976C1.76 29.984 2.432 28.944 3.392 27.856C3.488 28.816 4 29.952 4.928 31.264C5.888 32.576 7.312 33.792 9.2 34.912C10.96 35.936 12.768 36.688 14.624 37.168C16.512 37.616 18.272 37.84 19.904 37.84C21.696 37.84 23.152 37.616 24.272 37.168C25.392 36.72 26.272 36.192 26.912 35.584C27.552 34.944 28 34.304 28.256 33.664C28.512 33.024 28.656 32.512 28.688 32.128C28.656 31.488 28.352 30.88 27.776 30.304C27.232 29.696 26.48 29.12 25.52 28.576C24.592 28 23.504 27.424 22.256 26.848C21.008 26.272 19.712 25.696 18.368 25.12C16.352 24.224 14.608 23.392 13.136 22.624C11.696 21.824 10.496 21.024 9.536 20.224C8.608 19.392 7.92 18.528 7.472 17.632C7.056 16.736 6.848 15.712 6.848 14.56C6.848 12.768 7.392 11.072 8.48 9.472C9.568 7.872 11.136 6.656 13.184 5.824C14.208 5.376 15.296 5.056 16.448 4.864C17.632 4.672 18.784 4.576 19.904 4.576C22.016 4.576 24.08 4.864 26.096 5.44C28.112 6.016 30.128 6.752 32.144 7.648ZM34.079 36.784C34.079 36.496 34.095 36.144 34.127 35.728C34.191 35.28 34.287 34.704 34.415 34C34.543 33.264 34.703 32.384 34.895 31.36C35.119 30.336 35.391 29.104 35.711 27.664C35.775 27.344 35.919 26.832 36.143 26.128C36.367 25.424 36.655 24.688 37.007 23.92C37.391 23.12 37.839 22.352 38.351 21.616C38.895 20.88 39.535 20.336 40.271 19.984C40.815 20.112 41.535 20.448 42.431 20.992C43.327 21.504 44.095 22.224 44.735 23.152C43.999 23.984 43.375 24.816 42.863 25.648C42.383 26.48 41.935 27.344 41.519 28.24C41.135 29.136 40.767 30.064 40.415 31.024C40.095 31.984 39.727 32.992 39.311 34.048C38.959 34.944 38.639 35.872 38.351 36.832C38.063 37.76 37.903 38.576 37.871 39.28C37.871 39.856 37.855 40.256 37.823 40.48C37.823 40.736 37.743 40.864 37.583 40.864C37.455 40.864 37.199 40.784 36.815 40.624C36.431 40.464 36.031 40.224 35.615 39.904C35.231 39.552 34.879 39.12 34.559 38.608C34.239 38.096 34.079 37.488 34.079 36.784ZM43.247 15.952C43.247 15.76 43.295 15.472 43.391 15.088C43.231 14.928 43.087 14.688 42.959 14.368C42.863 14.048 42.815 13.76 42.815 13.504C42.815 13.216 42.847 12.832 42.911 12.352C43.007 11.84 43.119 11.296 43.247 10.72C43.375 10.144 43.535 9.552 43.727 8.944C43.919 8.304 44.111 7.728 44.303 7.216C44.687 7.216 45.151 7.328 45.695 7.552C46.271 7.744 46.847 8.016 47.423 8.368C47.999 8.688 48.527 9.056 49.007 9.472C49.487 9.856 49.855 10.224 50.111 10.576C49.759 10.928 49.295 11.424 48.719 12.064C48.143 12.672 47.583 13.328 47.039 14.032C46.495 14.704 45.999 15.344 45.551 15.952C45.103 16.56 44.815 16.992 44.687 17.248C44.303 17.184 43.967 17.024 43.679 16.768C43.391 16.48 43.247 16.208 43.247 15.952ZM73.1188 25.264C72.6068 25.296 71.9828 25.632 71.2468 26.272C70.5108 26.88 69.7108 27.68 68.8468 28.672C68.0148 29.632 67.1348 30.704 66.2068 31.888C65.3108 33.072 64.4308 34.256 63.5668 35.44C62.7348 36.592 61.9508 37.68 61.2148 38.704C60.4788 39.728 59.8548 40.544 59.3428 41.152C58.6388 40.864 58.0308 40.448 57.5188 39.904C57.0068 39.328 56.6388 38.624 56.4148 37.792C56.5748 36.8 56.7988 35.776 57.0868 34.72C57.3748 33.632 57.7428 32.512 58.1908 31.36C58.6708 30.208 59.2468 29.008 59.9188 27.76C60.6228 26.48 61.4708 25.136 62.4628 23.728C61.9828 23.76 61.3268 24.112 60.4948 24.784C59.6628 25.424 58.7668 26.272 57.8068 27.328C56.8468 28.352 55.8548 29.52 54.8307 30.832C53.8068 32.112 52.8468 33.376 51.9508 34.624C50.7668 36.288 49.7748 37.744 48.9748 38.992C48.2068 40.24 47.6468 40.976 47.2948 41.2C46.4628 40.592 45.8868 39.936 45.5668 39.232C45.2468 38.528 45.0068 37.744 44.8468 36.88C44.8788 36.112 44.9908 35.152 45.1828 34C45.4068 32.848 45.7108 31.664 46.0948 30.448C46.8308 28.112 47.7748 25.792 48.9268 23.488C50.1108 21.184 51.2468 19.072 52.3348 17.152C53.2308 17.344 54.0308 17.648 54.7348 18.064C55.4708 18.48 56.2388 19.088 57.0388 19.888C56.7188 20.88 56.2228 21.936 55.5508 23.056C54.8788 24.144 54.1748 25.296 53.4388 26.512C52.7028 27.728 52.0308 28.976 51.4228 30.256C50.8148 31.536 50.4148 32.832 50.2228 34.144C51.1188 32.864 52.1748 31.392 53.3907 29.728C54.6388 28.064 55.9028 26.496 57.1828 25.024C58.4948 23.552 59.7908 22.304 61.0708 21.28C62.3508 20.256 63.5028 19.744 64.5268 19.744C64.9108 19.744 65.3268 19.808 65.7748 19.936C66.2228 20.064 66.6388 20.224 67.0228 20.416C67.4068 20.608 67.7268 20.8 67.9828 20.992C68.2388 21.152 68.3828 21.28 68.4148 21.376C68.2548 22.016 67.8708 22.896 67.2628 24.016C66.6868 25.104 66.0628 26.256 65.3907 27.472C64.7188 28.688 64.0948 29.872 63.5188 31.024C62.9428 32.144 62.6068 33.04 62.5108 33.712C64.0788 31.568 65.5508 29.632 66.9268 27.904C68.3028 26.144 69.5988 24.64 70.8148 23.392C72.0308 22.144 73.1508 21.184 74.1748 20.512C75.2308 19.84 76.2228 19.504 77.1508 19.504C77.7908 19.504 78.3828 19.68 78.9268 20.032C79.5028 20.352 79.9028 20.832 80.1268 21.472C79.8388 22.432 79.3588 23.584 78.6868 24.928C78.0468 26.272 77.3908 27.696 76.7188 29.2C76.0468 30.672 75.4388 32.128 74.8948 33.568C74.3828 35.008 74.1268 36.304 74.1268 37.456C74.1268 38.128 74.2228 38.576 74.4148 38.8C74.6068 38.992 74.8788 39.088 75.2308 39.088C75.6148 39.088 75.9668 39.024 76.2868 38.896C76.6388 38.736 76.8948 38.656 77.0548 38.656C77.2468 38.784 77.3588 38.944 77.3908 39.136C77.4228 39.328 77.4388 39.504 77.4388 39.664C76.7988 40.176 76.1428 40.592 75.4708 40.912C74.7988 41.264 74.0468 41.44 73.2148 41.44C72.4468 41.44 71.8068 41.312 71.2948 41.056C70.8148 40.8 70.4148 40.448 70.0948 40C69.7748 39.552 69.5508 39.04 69.4228 38.464C69.2948 37.888 69.2308 37.264 69.2308 36.592C69.2308 35.504 69.3748 34.432 69.6628 33.376C69.9508 32.288 70.2868 31.264 70.6708 30.304C71.0868 29.312 71.5188 28.4 71.9668 27.568C72.4148 26.704 72.7988 25.936 73.1188 25.264ZM78.5739 55.888C78.1259 55.76 77.8699 55.28 77.8059 54.448C77.6779 54.032 77.5819 53.536 77.5179 52.96C77.4859 52.384 77.4699 51.728 77.4699 50.992C77.4699 50.32 77.5819 49.392 77.8059 48.208C78.0299 47.056 78.3339 45.744 78.7179 44.272C79.1339 42.8 79.6299 41.216 80.2059 39.52C80.7819 37.792 81.4219 36.048 82.1259 34.288C82.9899 32.08 83.7419 30.176 84.3819 28.576C85.0219 26.944 85.5499 25.536 85.9659 24.352C86.4139 23.168 86.7659 22.192 87.0219 21.424C87.3099 20.656 87.5339 20 87.6939 19.456C87.8219 19.072 88.0139 18.608 88.2699 18.064C88.5259 17.52 88.8139 16.976 89.1339 16.432C89.4859 15.856 89.8379 15.328 90.1899 14.848C90.5419 14.336 90.8619 13.952 91.1499 13.696C92.2699 13.856 93.3259 14.144 94.3179 14.56C95.3099 14.976 95.9179 15.376 96.1419 15.76C95.6939 16.176 95.1819 16.832 94.6059 17.728C94.0299 18.592 93.4699 19.552 92.9259 20.608C92.3819 21.632 91.8859 22.688 91.4379 23.776C90.9899 24.864 90.6539 25.824 90.4299 26.656C90.7499 26.112 91.1659 25.52 91.6779 24.88C92.1899 24.24 92.9739 23.36 94.0299 22.24C95.2139 21.024 96.3179 20.096 97.3419 19.456C98.3979 18.784 99.3099 18.448 100.078 18.448C101.294 18.448 102.286 18.784 103.054 19.456C103.854 20.128 104.254 20.992 104.254 22.048C104.254 24.352 103.87 26.64 103.102 28.912C102.334 31.152 101.23 33.184 99.7899 35.008C99.2459 35.712 98.6059 36.384 97.8699 37.024C97.1339 37.664 96.3659 38.24 95.5659 38.752C94.7659 39.232 93.9819 39.616 93.2139 39.904C92.4459 40.192 91.7579 40.336 91.1499 40.336C90.5739 40.336 90.0619 40.224 89.6139 40C89.1979 39.744 88.9099 39.44 88.7499 39.088C89.9979 38.352 91.2139 37.328 92.3979 36.016C93.5819 34.704 94.6699 33.2 95.6619 31.504C96.6859 29.776 97.5659 27.92 98.3019 25.936C99.0699 23.952 99.6459 21.936 100.03 19.888C98.8139 20.528 97.7099 21.232 96.7179 22C95.7579 22.736 94.7979 23.712 93.8379 24.928C92.6859 26.336 91.7739 27.472 91.1019 28.336C90.4299 29.2 89.8699 29.936 89.4219 30.544C89.0059 31.152 88.6539 31.728 88.3659 32.272C88.1099 32.784 87.8219 33.424 87.5019 34.192C87.0539 35.216 86.5259 36.576 85.9179 38.272C85.3419 39.936 84.7339 41.808 84.0939 43.888C83.4859 45.968 82.8619 48.176 82.2219 50.512C81.6139 52.88 81.0219 55.232 80.4459 57.568C80.0939 57.504 79.7899 57.248 79.5339 56.8C79.2779 56.512 79.0859 56.304 78.9579 56.176C78.8619 56.048 78.7339 55.952 78.5739 55.888ZM105.936 36.928C105.936 35.52 106.272 33.552 106.944 31.024C107.616 28.464 108.56 25.488 109.776 22.096C111.76 16.688 113.616 12.192 115.344 8.608C117.104 4.992 118.816 2.176 120.48 0.159998C120.864 0.223997 121.328 0.383997 121.872 0.639997C122.448 0.895998 123.008 1.184 123.552 1.504C124.096 1.792 124.576 2.096 124.992 2.416C125.44 2.736 125.728 2.992 125.856 3.184C123.36 6.128 121.168 9.296 119.28 12.688C117.392 16.08 115.664 19.968 114.096 24.352C112.752 28.128 111.728 31.536 111.024 34.576C110.32 37.584 109.968 40.096 109.968 42.112C109.968 42.656 109.968 42.992 109.968 43.12C109.968 43.248 109.984 43.376 110.016 43.504C109.568 43.44 109.184 43.328 108.864 43.168C108.544 43.008 108.336 42.816 108.24 42.592C108.176 42.432 108 42.192 107.712 41.872C107.424 41.584 107.168 41.36 106.944 41.2C106.656 41.008 106.416 40.512 106.224 39.712C106.032 38.88 105.936 37.952 105.936 36.928ZM135.376 32.56C134.64 34.896 133.904 37.024 133.168 38.944C132.432 40.864 131.648 42.624 130.816 44.224C129.984 45.856 129.088 47.344 128.128 48.688C127.168 50.064 126.112 51.36 124.96 52.576C123.488 54.112 121.968 55.28 120.4 56.08C118.832 56.912 117.264 57.328 115.696 57.328C114.896 57.328 114.096 57.232 113.296 57.04C112.528 56.88 111.808 56.64 111.136 56.32C110.432 56.032 109.824 55.68 109.312 55.264C108.768 54.88 108.384 54.464 108.16 54.016C108.16 53.632 108.384 53.296 108.832 53.008C109.216 53.36 109.536 53.632 109.792 53.824C110.048 54.016 110.304 54.176 110.56 54.304C110.784 54.432 111.04 54.512 111.328 54.544C111.584 54.576 111.888 54.592 112.24 54.592C114.064 54.592 115.84 54.048 117.568 52.96C119.328 51.904 120.976 50.384 122.512 48.4C124.08 46.448 125.504 44.064 126.784 41.248C128.064 38.464 129.152 35.344 130.048 31.888C129.632 32.528 129.12 33.312 128.512 34.24C127.904 35.168 127.232 36.096 126.496 37.024C125.76 37.92 124.992 38.736 124.192 39.472C123.424 40.208 122.672 40.704 121.936 40.96C121.424 40.928 120.88 40.816 120.304 40.624C119.76 40.464 119.232 40.224 118.72 39.904C118.24 39.584 117.808 39.2 117.424 38.752C117.04 38.304 116.784 37.792 116.656 37.216C116.656 36.288 116.688 35.552 116.752 35.008C116.816 34.432 116.928 33.808 117.088 33.136C117.376 31.92 117.792 30.544 118.336 29.008C118.912 27.472 119.568 25.968 120.304 24.496C121.072 22.992 121.904 21.6 122.8 20.32C123.728 19.008 124.688 17.984 125.68 17.248C125.936 17.248 126.256 17.28 126.64 17.344C127.024 17.376 127.424 17.456 127.84 17.584C128.256 17.712 128.656 17.872 129.04 18.064C129.424 18.224 129.76 18.448 130.048 18.736C129.696 19.056 128.928 20.128 127.744 21.952C126.56 23.776 125.248 26.4 123.808 29.824C123.648 30.176 123.456 30.688 123.232 31.36C123.008 32.032 122.784 32.736 122.56 33.472C122.368 34.208 122.192 34.928 122.032 35.632C121.872 36.336 121.792 36.896 121.792 37.312C121.792 37.568 121.824 37.76 121.888 37.888C121.984 38.016 122.064 38.112 122.128 38.176C122.704 38.08 123.472 37.616 124.432 36.784C125.392 35.92 126.48 34.592 127.696 32.8C128.464 31.648 129.168 30.512 129.808 29.392C130.448 28.24 131.072 27.088 131.68 25.936C132.32 24.784 132.976 23.6 133.648 22.384C134.32 21.168 135.04 19.92 135.808 18.64C136.224 18.64 136.672 18.688 137.152 18.784C137.632 18.88 138.096 19.008 138.544 19.168C138.992 19.296 139.376 19.456 139.696 19.648C140.048 19.808 140.304 19.984 140.464 20.176C139.472 22.288 138.544 24.352 137.68 26.368C136.816 28.384 136.048 30.448 135.376 32.56ZM142.205 37.504C142.685 36.448 143.261 35.088 143.933 33.424C144.605 31.76 145.309 29.968 146.045 28.048C146.781 26.096 147.533 24.112 148.301 22.096C149.069 20.048 149.789 18.112 150.461 16.288C151.133 14.464 151.709 12.832 152.189 11.392C152.701 9.952 153.069 8.848 153.293 8.08C151.277 8.912 149.549 10.176 148.109 11.872C146.669 13.568 145.581 15.696 144.845 18.256C144.109 18 143.437 17.552 142.829 16.912C142.221 16.24 141.821 15.408 141.629 14.416C141.949 12.944 142.541 11.6 143.405 10.384C144.301 9.168 145.421 8.128 146.765 7.264C148.109 6.4 149.661 5.744 151.421 5.296C153.181 4.816 155.069 4.576 157.085 4.576C159.645 4.576 161.997 4.96 164.141 5.728C166.285 6.464 168.125 7.504 169.661 8.848C171.197 10.192 172.397 11.808 173.261 13.696C174.125 15.584 174.557 17.68 174.557 19.984C174.557 23.12 173.981 26.112 172.829 28.96C171.677 31.808 170.109 34.32 168.125 36.496C166.173 38.672 163.901 40.4 161.309 41.68C158.717 42.992 155.997 43.648 153.149 43.648C150.525 43.648 148.269 43.12 146.381 42.064C144.525 41.04 143.133 39.52 142.205 37.504ZM159.149 6.976C157.549 6.976 156.029 7.2 154.589 7.648C155.997 8.16 157.165 8.704 158.093 9.28C159.021 9.824 159.661 10.256 160.013 10.576C159.757 10.928 159.373 11.552 158.861 12.448C158.381 13.344 157.805 14.432 157.133 15.712C156.493 16.992 155.805 18.4 155.069 19.936C154.333 21.44 153.613 22.992 152.909 24.592C151.085 28.656 149.757 31.856 148.925 34.192C148.125 36.528 147.725 38.144 147.725 39.04C148.173 39.2 148.717 39.312 149.357 39.376C149.997 39.44 150.685 39.472 151.421 39.472C154.013 39.472 156.461 38.88 158.765 37.696C161.101 36.48 163.133 34.864 164.861 32.848C166.621 30.832 167.997 28.496 168.989 25.84C170.013 23.152 170.525 20.336 170.525 17.392C170.525 14.096 169.501 11.536 167.453 9.712C165.405 7.888 162.637 6.976 159.149 6.976ZM181.586 41.68C179.762 41.488 178.306 40.688 177.218 39.28C176.13 37.872 175.586 36.08 175.586 33.904C175.586 32.624 175.778 31.296 176.162 29.92C176.546 28.544 177.09 27.216 177.794 25.936C178.498 24.624 179.33 23.392 180.29 22.24C181.25 21.088 182.29 20.096 183.41 19.264C185.17 17.952 186.818 17.296 188.354 17.296C189.378 17.84 190.386 18.976 191.378 20.704C191.538 20.704 191.682 20.704 191.81 20.704C191.938 20.672 192.082 20.656 192.242 20.656C193.938 20.656 194.786 22.16 194.786 25.168C194.786 27.184 194.45 29.104 193.778 30.928C193.138 32.72 192.226 34.352 191.042 35.824C189.89 37.296 188.498 38.544 186.866 39.568C185.266 40.56 183.506 41.264 181.586 41.68ZM184.034 26.56C183.49 27.296 182.978 28.096 182.498 28.96C182.018 29.824 181.602 30.704 181.25 31.6C180.898 32.464 180.626 33.312 180.434 34.144C180.242 34.944 180.146 35.664 180.146 36.304C180.146 37.072 180.274 37.808 180.53 38.512C180.786 39.216 181.074 39.616 181.394 39.712C182.834 39.392 184.146 38.8 185.33 37.936C186.546 37.04 187.586 35.936 188.45 34.624C189.346 33.312 190.034 31.824 190.514 30.16C191.026 28.496 191.282 26.72 191.282 24.832C191.282 24 191.234 23.344 191.138 22.864C191.042 22.384 190.882 21.968 190.658 21.616C189.25 22.032 187.986 22.704 186.866 23.632C185.778 24.56 184.834 25.536 184.034 26.56Z" fill="white"/>
</svg>
