<svg width="64" height="64" viewBox="0 0 64 64" fill="none" xmlns="http://www.w3.org/2000/svg">
<g clip-path="url(#clip0_33_112)">
<path d="M29.7536 22.7396V29.7535H22.7397C21.4989 29.7535 20.4932 30.7592 20.4932 32C20.4932 33.2408 21.4989 34.2465 22.7397 34.2465H29.7536V41.2604C29.7536 42.5012 30.7593 43.5069 32.0001 43.5069C33.2409 43.5069 34.2336 42.5012 34.2336 41.2604V34.2465H41.2474C42.4883 34.2465 43.494 33.2408 43.494 32C43.494 30.7592 42.4883 29.7535 41.2474 29.7535H34.2336V22.7396C34.2336 21.4988 33.2279 20.493 32.0001 20.493C30.7723 20.493 29.7536 21.4988 29.7536 22.7396Z" fill="white"/>
<path d="M9.3649 9.3649C3.33061 15.4122 0 23.4449 0 32C0 40.5551 3.33061 48.5878 9.37796 54.6351C15.4122 60.6694 23.458 64 32 64C40.542 64 48.5878 60.6694 54.6351 54.622C60.6694 48.5878 64 40.542 64 32C64 23.458 60.6694 15.4122 54.622 9.3649C48.5878 3.33061 40.5551 0 32 0C23.458 0 15.4122 3.33061 9.3649 9.3649ZM59.52 32C59.52 39.3535 56.6596 46.2629 51.4612 51.4612C46.2629 56.6596 39.3535 59.52 32 59.52C24.6465 59.52 17.7371 56.6596 12.5388 51.4612C7.34041 46.2629 4.48 39.3535 4.48 32C4.48 24.6465 7.34041 17.7371 12.5388 12.5388C17.7371 7.34041 24.6465 4.48 32 4.48C39.3535 4.48 46.2629 7.34041 51.4612 12.5388C56.6596 17.7371 59.52 24.6465 59.52 32Z" fill="white"/>
</g>
<defs>
<clipPath id="clip0_33_112">
<rect width="64" height="64" fill="white"/>
</clipPath>
</defs>
</svg>
