<svg width="60" height="60" viewBox="0 0 60 60" fill="none" xmlns="http://www.w3.org/2000/svg">
<path d="M50.0422 7.48415H38.2087C37.8231 3.29322 34.2897 0 30 0C25.7103 0 22.1768 3.29322 21.7912 7.48415H9.95775C6.46046 7.48415 3.61523 10.3294 3.61523 13.8267C3.61523 17.2388 6.32407 20.0289 9.70398 20.1628V52.5159C9.70398 56.6426 13.0613 60 17.1881 60H42.8117C46.9385 60 50.2958 56.6426 50.2958 52.5159V20.1626C53.6758 20.0289 56.3846 17.2388 56.3846 13.8265C56.3846 10.3292 53.5395 7.48415 50.0422 7.48415ZM21.7494 49.4183C21.7494 50.4692 20.8975 51.3211 19.8467 51.3211C18.7959 51.3211 17.9441 50.4692 17.9441 49.4183V24.4081C17.9441 23.3572 18.796 22.5054 19.8467 22.5054C20.8976 22.5054 21.7494 23.3574 21.7494 24.4081V49.4183ZM31.9027 49.4183C31.9027 50.4692 31.0507 51.3211 30 51.3211C28.9491 51.3211 28.0973 50.4692 28.0973 49.4183V24.4081C28.0973 23.3572 28.9492 22.5054 30 22.5054C31.0509 22.5054 31.9027 23.3574 31.9027 24.4081V49.4183ZM42.0559 49.4183C42.0559 50.4692 41.204 51.3211 40.1532 51.3211C39.1023 51.3211 38.2504 50.4692 38.2504 49.4183V24.4081C38.2504 23.3572 39.1023 22.5054 40.1532 22.5054C41.2041 22.5054 42.0559 23.3574 42.0559 24.4081V49.4183Z" fill="#14B8A6"/>
</svg>
